<svg width="110" height="110" viewBox="0 0 110 110" fill="none" xmlns="http://www.w3.org/2000/svg">
<g clip-path="url(#clip0_1_37)">
<path d="M109.03 95.0139C109.03 96.5339 109.03 98.0539 108.81 99.5739C108.27 104.574 104.14 109.564 99.2502 109.564H72.5302C61.7802 109.564 59.6002 98.0539 63.8402 91.6439C64.9302 90.0139 71.3302 82.3039 76.6602 76.1139C80.7902 71.1139 79.8102 63.2939 72.8602 61.1239C67.3202 59.3839 62.2202 61.7739 60.1502 67.5339C58.9602 71.0139 57.9802 74.5939 57.1102 78.1739C55.4802 84.5839 54.0702 90.9939 52.4402 97.4039C49.5102 108.484 44.9502 109.464 36.4702 109.464H11.6002C9.54016 109.464 7.47016 108.704 5.73016 107.504C2.36016 105.224 0.410156 101.204 0.410156 97.0739V49.0639C0.410156 42.6539 3.23016 37.2239 9.43016 35.7039C13.0102 34.8339 18.1202 35.8139 22.9002 39.6139C35.8302 49.9339 39.7402 53.3039 45.7102 50.5839C53.3102 47.1039 54.0702 35.3739 41.3702 31.9039C27.9002 28.2139 12.8002 24.3039 9.98016 23.5439C7.16016 22.7839 4.66016 21.3739 2.81016 18.9839C-1.43984 13.6639 0.190156 5.94393 6.17016 2.90393C8.67016 1.60393 11.3802 0.953933 14.1002 0.843933C20.0702 0.733933 36.3602 0.843933 38.5402 0.843933C39.7302 0.843933 40.8202 0.953933 42.0202 1.06393C45.5002 1.60393 48.1002 3.34393 50.0602 6.49393C51.9102 9.64393 52.7802 13.1239 53.6402 16.5939C55.0502 22.2439 56.2502 28.0039 57.6602 33.7539C58.4202 36.7939 59.1802 39.8339 60.1602 42.7739C60.9202 44.9439 62.1202 47.0139 63.9602 48.4239C68.7402 52.0039 75.1502 50.3839 78.0802 44.8439C79.3802 42.6739 82.4202 28.5539 86.0102 13.1239C86.8802 9.21393 88.1802 5.73393 91.4402 3.34393C97.3102 -1.10607 104.15 1.93393 106.43 5.84393C107.3 7.25393 107.95 8.88393 108.17 10.5139C108.6 13.3339 108.93 16.0539 108.93 18.8739C109.04 42.0139 109.04 84.1539 109.04 95.0139H109.03Z" fill="#A0EC06"/>
</g>
<defs>
<clipPath id="clip0_1_37">
<rect width="108.62" height="108.78" fill="white" transform="translate(0.410156 0.793945)"/>
</clipPath>
</defs>
</svg>
