<svg width="109" height="85" viewBox="0 0 109 85" fill="none" xmlns="http://www.w3.org/2000/svg">
<g clip-path="url(#clip0_1_47)">
<path d="M96.7651 76.8949L78.9451 59.0749C74.8551 54.9849 77.7551 47.9949 83.5351 47.9949H108.895V37.1749H83.5351C77.7551 37.1749 74.8551 30.1849 78.9451 26.0949L96.8751 8.16486L89.2251 0.504863L66.3551 23.3749C59.9751 29.7549 49.6351 29.7549 43.2551 23.3749L20.3551 0.484863L12.7051 8.13486L30.6651 26.0949C34.7551 30.1849 31.8551 37.1749 26.0751 37.1749H0.705078V47.9949H26.0651C31.8451 47.9949 34.7451 54.9849 30.6551 59.0749L12.7151 77.0149L20.3651 84.6649L43.2351 61.7949C49.6151 55.4149 59.9551 55.4149 66.3351 61.7949L89.0951 84.5549L96.7451 76.9049L96.7651 76.8949Z" fill="#FF6333"/>
</g>
<defs>
<clipPath id="clip0_1_47">
<rect width="108.19" height="84.17" fill="white" transform="translate(0.705078 0.484863)"/>
</clipPath>
</defs>
</svg>
