<svg width="108" height="108" viewBox="0 0 108 108" fill="none" xmlns="http://www.w3.org/2000/svg">
<g clip-path="url(#clip0_1_57)">
<path d="M42.76 22.3798C41.69 21.3098 41.6 21.5298 40.09 21.5298C38.58 21.5298 38.58 22.5298 37.06 22.5298C35.54 22.5298 35.54 21.5298 34.03 21.5298C32.52 21.5298 32.52 22.5298 31 22.5298C29.48 22.5298 29.48 21.5298 27.97 21.5298C26.45 21.5298 26.45 22.5298 24.94 22.5298C23.43 22.5298 22.62 20.6098 21.55 21.6798C20.48 22.7498 22.41 23.5398 22.41 25.0398C22.41 26.5398 21.4 26.5498 21.4 28.0498C21.4 29.5598 22.41 29.5598 22.41 31.0598C22.41 32.5598 21.4 32.5698 21.4 34.0698C21.4 35.5798 22.41 35.5798 22.41 37.0798C22.41 38.5798 21.4 38.5898 21.4 40.0998C21.4 41.6098 21.19 41.6998 22.26 42.7598C23.33 43.8198 23.42 43.6098 24.93 43.6098C26.44 43.6098 26.44 42.6098 27.96 42.6098C29.48 42.6098 29.48 43.6098 30.99 43.6098C32.5 43.6098 32.5 42.6098 34.02 42.6098C35.54 42.6098 35.54 43.6098 37.05 43.6098C38.56 43.6098 38.57 42.6098 40.08 42.6098C41.59 42.6098 42.4 44.5298 43.47 43.4598C44.54 42.3998 42.61 41.5998 42.61 40.0998C42.61 38.5898 43.62 38.5898 43.62 37.0898C43.62 35.5898 42.61 35.5798 42.61 34.0798C42.61 32.5698 43.62 32.5698 43.62 31.0698C43.62 29.5698 42.61 29.5598 42.61 28.0598C42.61 26.5598 43.38 26.6098 43.61 25.1198C43.83 23.7098 43.83 23.4498 42.76 22.3798Z" fill="#73B6FF"/>
<path d="M43.4699 63.8497C44.5399 64.9197 44.6299 64.6997 46.1399 64.6997C47.6499 64.6997 47.6499 63.6997 49.1699 63.6997C50.6899 63.6997 50.6899 64.6997 52.1999 64.6997C53.7099 64.6997 53.7099 63.6997 55.2299 63.6997C56.7499 63.6997 56.7499 64.6997 58.2599 64.6997C59.7699 64.6997 59.7799 63.6997 61.2899 63.6997C62.7999 63.6997 63.6099 65.6197 64.6799 64.5497C65.7499 63.4797 63.8199 62.6897 63.8199 61.1897C63.8199 59.6797 64.8299 59.6797 64.8299 58.1797C64.8299 56.6797 63.8199 56.6697 63.8199 55.1697C63.8199 53.6597 64.8299 53.6597 64.8299 52.1597C64.8299 50.6597 63.8199 50.6497 63.8199 49.1497C63.8199 47.6497 64.8299 47.6397 64.8299 46.1297C64.8299 44.6197 65.0399 44.5297 63.9699 43.4697C62.8999 42.3997 62.8099 42.6197 61.2999 42.6197C59.7899 42.6197 59.7899 43.6197 58.2699 43.6197C56.7499 43.6197 56.7499 42.6197 55.2399 42.6197C53.7299 42.6197 53.7299 43.6197 52.2099 43.6197C50.6899 43.6197 50.6899 42.6197 49.1799 42.6197C47.6599 42.6197 47.6599 43.6197 46.1499 43.6197C44.6399 43.6197 43.8299 41.6997 42.7599 42.7697C41.6899 43.8297 43.6199 44.6297 43.6199 46.1297C43.6199 47.6297 42.6099 47.6397 42.6099 49.1397C42.6099 50.6497 43.6199 50.6497 43.6199 52.1497C43.6199 53.6597 42.6099 53.6597 42.6099 55.1597C42.6099 56.6697 43.6199 56.6697 43.6199 58.1697C43.6199 59.6697 42.8499 59.6197 42.6199 61.1097C42.3999 62.5197 42.3999 62.7797 43.4699 63.8497Z" fill="#73B6FF"/>
<path d="M22.2499 64.5598C21.1799 65.6198 21.3899 65.7098 21.3899 67.2198C21.3899 68.7298 22.3999 68.7298 22.3999 70.2298C22.3999 71.7398 21.3899 71.7398 21.3899 73.2398C21.3899 74.7498 22.3999 74.7498 22.3999 76.2498C22.3999 77.7498 21.3899 77.7598 21.3899 79.2598C21.3899 80.7598 22.3999 80.7698 22.3999 82.2798C22.3999 83.7898 20.4699 84.5798 21.5399 85.6498C22.6099 86.7198 23.4099 84.7998 24.9299 84.7998C26.4499 84.7998 26.4399 85.7998 27.9599 85.7998C29.4799 85.7998 29.4799 84.7998 30.9899 84.7998C32.4999 84.7998 32.4999 85.7998 34.0199 85.7998C35.5399 85.7998 35.5399 84.7998 37.0499 84.7998C38.5599 84.7998 38.5699 85.7998 40.0799 85.7998C41.5899 85.7998 41.6899 86.0098 42.7599 84.9498C43.8299 83.8898 43.6199 83.7998 43.6199 82.2898C43.6199 80.7798 42.6099 80.7798 42.6099 79.2798C42.6099 77.7698 43.6199 77.7698 43.6199 76.2698C43.6199 74.7598 42.6099 74.7598 42.6099 73.2598C42.6099 71.7498 43.6199 71.7498 43.6199 70.2498C43.6199 68.7498 42.6099 68.7398 42.6099 67.2298C42.6099 65.7198 44.5399 64.9298 43.4699 63.8598C42.3999 62.7898 41.5999 64.7098 40.0799 64.7098C38.5699 64.7098 38.5699 63.7098 37.0499 63.7098C35.5299 63.7098 35.5299 64.7098 34.0199 64.7098C32.5099 64.7098 32.5099 63.7098 30.9899 63.7098C29.4699 63.7098 29.4699 64.7098 27.9599 64.7098C26.4399 64.7098 26.4999 63.9498 24.9999 63.7198C23.5799 63.4998 23.3199 63.4998 22.2499 64.5698V64.5598Z" fill="#73B6FF"/>
<path d="M64.6899 84.9398C65.7599 86.0098 65.8499 85.7898 67.3599 85.7898C68.8699 85.7898 68.8699 84.7898 70.3899 84.7898C71.9099 84.7898 71.9099 85.7898 73.4199 85.7898C74.9299 85.7898 74.9299 84.7898 76.4499 84.7898C77.9699 84.7898 77.9699 85.7898 79.4799 85.7898C80.9899 85.7898 80.9999 84.7898 82.5099 84.7898C84.0199 84.7898 84.8299 86.7098 85.8999 85.6398C86.9699 84.5698 85.0399 83.7798 85.0399 82.2798C85.0399 80.7698 86.0499 80.7698 86.0499 79.2698C86.0499 77.7598 85.0399 77.7598 85.0399 76.2598C85.0399 74.7598 86.0499 74.7498 86.0499 73.2498C86.0499 71.7398 85.0399 71.7398 85.0399 70.2398C85.0399 68.7298 86.0499 68.7298 86.0499 67.2198C86.0499 65.7098 86.2599 65.6198 85.1899 64.5598C84.1199 63.4998 84.0299 63.7098 82.5199 63.7098C81.0099 63.7098 81.0099 64.7098 79.4899 64.7098C77.9699 64.7098 77.9699 63.7098 76.4599 63.7098C74.9499 63.7098 74.9499 64.7098 73.4299 64.7098C71.9099 64.7098 71.9099 63.7098 70.3999 63.7098C68.8799 63.7098 68.8799 64.7098 67.3699 64.7098C65.8499 64.7098 65.0499 62.7898 63.9799 63.8598C62.9099 64.9198 64.8399 65.7198 64.8399 67.2198C64.8399 68.7198 63.8299 68.7298 63.8299 70.2298C63.8299 71.7398 64.8399 71.7398 64.8399 73.2398C64.8399 74.7398 63.8299 74.7498 63.8299 76.2498C63.8299 77.7598 64.8399 77.7598 64.8399 79.2598C64.8399 80.7598 64.0699 80.7098 63.8399 82.1998C63.6199 83.6098 63.6199 83.8698 64.6899 84.9398Z" fill="#73B6FF"/>
<path d="M64.6899 22.3798C63.6199 23.4398 63.8299 23.5298 63.8299 25.0398C63.8299 26.5498 64.8399 26.5498 64.8399 28.0498C64.8399 29.5498 63.8299 29.5598 63.8299 31.0598C63.8299 32.5698 64.8399 32.5698 64.8399 34.0698C64.8399 35.5698 63.8299 35.5798 63.8299 37.0798C63.8299 38.5798 64.8399 38.5898 64.8399 40.0998C64.8399 41.6098 62.9099 42.3998 63.9799 43.4698C65.0499 44.5398 65.8499 42.6198 67.3699 42.6198C68.8899 42.6198 68.8799 43.6198 70.3999 43.6198C71.9199 43.6198 71.9199 42.6198 73.4299 42.6198C74.9399 42.6198 74.9399 43.6198 76.4599 43.6198C77.9799 43.6198 77.9799 42.6198 79.4899 42.6198C80.9999 42.6198 81.0099 43.6198 82.5199 43.6198C84.0299 43.6198 84.1299 43.8298 85.1999 42.7698C86.2699 41.7098 86.0599 41.6198 86.0599 40.1098C86.0599 38.5998 85.0499 38.5998 85.0499 37.0998C85.0499 35.5898 86.0599 35.5898 86.0599 34.0898C86.0599 32.5798 85.0499 32.5798 85.0499 31.0798C85.0499 29.5698 86.0599 29.5698 86.0599 28.0698C86.0599 26.5698 85.0499 26.5598 85.0499 25.0498C85.0499 23.5398 86.9799 22.7498 85.9099 21.6798C84.8399 20.6098 84.0399 22.5298 82.5199 22.5298C80.9999 22.5298 81.0099 21.5298 79.4899 21.5298C77.9699 21.5298 77.9699 22.5298 76.4599 22.5298C74.9499 22.5298 74.9499 21.5298 73.4299 21.5298C71.9099 21.5298 71.9099 22.5298 70.3999 22.5298C68.8899 22.5298 68.9399 21.7698 67.4399 21.5398C66.0199 21.3198 65.7599 21.3198 64.6899 22.3898V22.3798Z" fill="#73B6FF"/>
<path d="M1.03998 106.03C2.10998 107.1 2.19998 106.88 3.70998 106.88C5.21998 106.88 5.21998 105.88 6.73998 105.88C8.25998 105.88 8.25998 106.88 9.76998 106.88C11.28 106.88 11.28 105.88 12.8 105.88C14.32 105.88 14.32 106.88 15.83 106.88C17.34 106.88 17.35 105.88 18.86 105.88C20.37 105.88 21.18 107.8 22.25 106.73C23.32 105.67 21.39 104.87 21.39 103.37C21.39 101.86 22.4 101.86 22.4 100.36C22.4 98.8497 21.39 98.8497 21.39 97.3497C21.39 95.8397 22.4 95.8397 22.4 94.3397C22.4 92.8397 21.39 92.8297 21.39 91.3297C21.39 89.8297 22.4 89.8197 22.4 88.3097C22.4 86.7997 22.61 86.7097 21.54 85.6497C20.47 84.5897 20.38 84.7997 18.87 84.7997C17.36 84.7997 17.36 85.7997 15.84 85.7997C14.32 85.7997 14.32 84.7997 12.81 84.7997C11.3 84.7997 11.3 85.7997 9.77998 85.7997C8.25998 85.7997 8.25998 84.7997 6.74998 84.7997C5.22998 84.7997 5.22998 85.7997 3.71998 85.7997C2.19998 85.7997 1.39998 83.8797 0.329981 84.9497C-0.740019 86.0197 1.18998 86.8097 1.18998 88.3097C1.18998 89.8097 0.179981 89.8197 0.179981 91.3197C0.179981 92.8297 1.18998 92.8297 1.18998 94.3297C1.18998 95.8297 0.179981 95.8397 0.179981 97.3397C0.179981 98.8497 1.18998 98.8497 1.18998 100.35C1.18998 101.85 0.419981 101.8 0.189981 103.29C-0.0300188 104.7 -0.0300188 104.96 1.03998 106.03Z" fill="#73B6FF"/>
<path d="M106.41 63.8497C107.48 62.7897 107.27 62.6997 107.27 61.1897C107.27 59.6797 106.26 59.6797 106.26 58.1797C106.26 56.6697 107.27 56.6697 107.27 55.1697C107.27 53.6597 106.26 53.6597 106.26 52.1597C106.26 50.6497 107.27 50.6497 107.27 49.1497C107.27 47.6497 106.26 47.6397 106.26 46.1297C106.26 44.6197 108.19 43.8297 107.12 42.7597C106.05 41.6897 105.25 43.6097 103.73 43.6097C102.21 43.6097 102.22 42.6097 100.7 42.6097C99.1801 42.6097 99.1801 43.6097 97.6701 43.6097C96.1601 43.6097 96.1601 42.6097 94.6401 42.6097C93.1201 42.6097 93.1201 43.6097 91.6101 43.6097C90.0901 43.6097 90.0901 42.6097 88.5801 42.6097C87.0601 42.6097 86.9701 42.3997 85.9001 43.4597C84.8301 44.5197 85.0401 44.6097 85.0401 46.1197C85.0401 47.6297 86.0501 47.6297 86.0501 49.1297C86.0501 50.6397 85.0401 50.6397 85.0401 52.1397C85.0401 53.6397 86.0501 53.6497 86.0501 55.1497C86.0501 56.6597 85.0401 56.6597 85.0401 58.1597C85.0401 59.6697 86.0501 59.6697 86.0501 61.1797C86.0501 62.6897 84.1201 63.4797 85.1901 64.5497C86.2601 65.6197 87.0601 63.6997 88.5801 63.6997C90.1001 63.6997 90.0901 64.6997 91.6101 64.6997C93.1301 64.6997 93.1301 63.6997 94.6401 63.6997C96.1501 63.6997 96.1501 64.6997 97.6701 64.6997C99.1901 64.6997 99.1901 63.6997 100.7 63.6997C102.21 63.6997 102.16 64.4597 103.66 64.6897C105.08 64.9097 105.34 64.9097 106.41 63.8397V63.8497Z" fill="#73B6FF"/>
<path d="M1.03998 1.28974C-0.0400188 2.34974 0.179981 2.43974 0.179981 3.94974C0.179981 5.45974 1.18998 5.45974 1.18998 6.95974C1.18998 8.45974 0.179981 8.45974 0.179981 9.96974C0.179981 11.4797 1.18998 11.4797 1.18998 12.9797C1.18998 14.4797 0.179981 14.4897 0.179981 15.9897C0.179981 17.4897 1.18998 17.4997 1.18998 19.0097C1.18998 20.5197 -0.740019 21.3097 0.329981 22.3797C1.39998 23.4497 2.19998 21.5297 3.71998 21.5297C5.23998 21.5297 5.22998 22.5297 6.74998 22.5297C8.26998 22.5297 8.26998 21.5297 9.77998 21.5297C11.29 21.5297 11.29 22.5297 12.81 22.5297C14.33 22.5297 14.33 21.5297 15.84 21.5297C17.35 21.5297 17.36 22.5297 18.87 22.5297C20.38 22.5297 20.48 22.7397 21.55 21.6797C22.62 20.6197 22.41 20.5297 22.41 19.0197C22.41 17.5097 21.4 17.5097 21.4 16.0097C21.4 14.4997 22.41 14.4997 22.41 12.9997C22.41 11.4997 21.4 11.4897 21.4 9.98974C21.4 8.47974 22.41 8.47974 22.41 6.97974C22.41 5.47974 21.4 5.46974 21.4 3.95974C21.4 2.44974 23.33 1.65974 22.26 0.589739C21.19 -0.480261 20.39 1.43974 18.87 1.43974C17.35 1.43974 17.36 0.439739 15.84 0.439739C14.32 0.439739 14.32 1.43974 12.81 1.43974C11.3 1.43974 11.3 0.439739 9.77998 0.439739C8.25998 0.439739 8.25998 1.43974 6.74998 1.43974C5.23998 1.43974 5.28998 0.669739 3.78998 0.439739C2.36998 0.219739 2.10998 0.219739 1.03998 1.28974Z" fill="#73B6FF"/>
<path d="M63.9799 1.28974C62.9099 0.219739 62.8199 0.439739 61.3099 0.439739C59.7999 0.439739 59.7999 1.43974 58.2799 1.43974C56.7599 1.43974 56.7599 0.439739 55.2499 0.439739C53.7399 0.439739 53.7399 1.43974 52.2199 1.43974C50.6999 1.43974 50.6999 0.439739 49.1899 0.439739C47.6799 0.439739 47.6699 1.43974 46.1599 1.43974C44.6499 1.43974 43.8399 -0.480261 42.7699 0.589739C41.6999 1.65974 43.6299 2.44974 43.6299 3.94974C43.6299 5.44974 42.6199 5.45974 42.6199 6.95974C42.6199 8.46974 43.6299 8.46974 43.6299 9.96974C43.6299 11.4797 42.6199 11.4797 42.6199 12.9797C42.6199 14.4897 43.6299 14.4897 43.6299 15.9897C43.6299 17.4897 42.6199 17.4997 42.6199 19.0097C42.6199 20.5197 42.4099 20.6097 43.4799 21.6697C44.5499 22.7297 44.6399 22.5197 46.1499 22.5197C47.6599 22.5197 47.6599 21.5197 49.1799 21.5197C50.6999 21.5197 50.6999 22.5197 52.2099 22.5197C53.7199 22.5197 53.7199 21.5197 55.2399 21.5197C56.7599 21.5197 56.7599 22.5197 58.2699 22.5197C59.7799 22.5197 59.7899 21.5197 61.2999 21.5197C62.8099 21.5197 63.6199 23.4397 64.6899 22.3697C65.7599 21.2997 63.8299 20.5097 63.8299 19.0097C63.8299 17.4997 64.8399 17.4997 64.8399 15.9997C64.8399 14.4997 63.8299 14.4897 63.8299 12.9897C63.8299 11.4797 64.8399 11.4797 64.8399 9.97974C64.8399 8.47974 63.8299 8.46974 63.8299 6.96974C63.8299 5.46974 64.5999 5.51974 64.8299 4.02974C65.0499 2.61974 65.0499 2.35974 63.9799 1.28974Z" fill="#73B6FF"/>
<path d="M106.41 1.28974C105.34 0.219739 105.25 0.439739 103.74 0.439739C102.23 0.439739 102.23 1.43974 100.71 1.43974C99.1901 1.43974 99.1901 0.439739 97.6801 0.439739C96.1701 0.439739 96.1701 1.43974 94.6501 1.43974C93.1301 1.43974 93.1301 0.439739 91.6201 0.439739C90.1101 0.439739 90.1001 1.43974 88.5901 1.43974C87.0801 1.43974 86.2701 -0.480261 85.2001 0.589739C84.1301 1.65974 86.0601 2.44974 86.0601 3.94974C86.0601 5.45974 85.0501 5.45974 85.0501 6.95974C85.0501 8.46974 86.0601 8.46974 86.0601 9.96974C86.0601 11.4797 85.0501 11.4797 85.0501 12.9797C85.0501 14.4897 86.0601 14.4897 86.0601 15.9897C86.0601 17.4897 85.0501 17.4997 85.0501 19.0097C85.0501 20.5197 84.8401 20.6097 85.9101 21.6697C86.9801 22.7297 87.0701 22.5197 88.5801 22.5197C90.0901 22.5197 90.0901 21.5197 91.6101 21.5197C93.1301 21.5197 93.1301 22.5197 94.6401 22.5197C96.1501 22.5197 96.1501 21.5197 97.6701 21.5197C99.1901 21.5197 99.1901 22.5197 100.7 22.5197C102.21 22.5197 102.22 21.5197 103.73 21.5197C105.24 21.5197 106.05 23.4397 107.12 22.3697C108.19 21.3097 106.26 20.5097 106.26 19.0097C106.26 17.4997 107.27 17.4997 107.27 15.9997C107.27 14.4997 106.26 14.4897 106.26 12.9897C106.26 11.4797 107.27 11.4797 107.27 9.97974C107.27 8.47974 106.26 8.46974 106.26 6.96974C106.26 5.45974 107.03 5.51974 107.26 4.02974C107.48 2.61974 107.48 2.35974 106.41 1.28974Z" fill="#73B6FF"/>
<path d="M1.03998 43.4697C-0.0300188 44.5297 0.179981 44.6197 0.179981 46.1297C0.179981 47.6397 1.18998 47.6397 1.18998 49.1397C1.18998 50.6397 0.179981 50.6497 0.179981 52.1497C0.179981 53.6497 1.18998 53.6597 1.18998 55.1597C1.18998 56.6597 0.179981 56.6697 0.179981 58.1697C0.179981 59.6697 1.18998 59.6797 1.18998 61.1897C1.18998 62.6997 -0.740019 63.4897 0.329981 64.5597C1.39998 65.6297 2.19998 63.7097 3.71998 63.7097C5.23998 63.7097 5.22998 64.7097 6.74998 64.7097C8.26998 64.7097 8.26998 63.7097 9.77998 63.7097C11.29 63.7097 11.29 64.7097 12.81 64.7097C14.33 64.7097 14.33 63.7097 15.84 63.7097C17.35 63.7097 17.36 64.7097 18.87 64.7097C20.38 64.7097 20.48 64.9197 21.55 63.8597C22.62 62.7997 22.41 62.7097 22.41 61.1997C22.41 59.6897 21.4 59.6897 21.4 58.1897C21.4 56.6797 22.41 56.6797 22.41 55.1797C22.41 53.6797 21.4 53.6697 21.4 52.1697C21.4 50.6597 22.41 50.6597 22.41 49.1597C22.41 47.6597 21.4 47.6497 21.4 46.1397C21.4 44.6297 23.33 43.8397 22.26 42.7697C21.19 41.6997 20.39 43.6197 18.87 43.6197C17.35 43.6197 17.36 42.6197 15.84 42.6197C14.32 42.6197 14.32 43.6197 12.81 43.6197C11.3 43.6197 11.3 42.6197 9.77998 42.6197C8.25998 42.6197 8.25998 43.6197 6.74998 43.6197C5.22998 43.6197 5.28998 42.8597 3.78998 42.6297C2.36998 42.4097 2.10998 42.4097 1.03998 43.4797V43.4697Z" fill="#73B6FF"/>
<path d="M106.41 106.03C107.48 104.97 107.27 104.88 107.27 103.37C107.27 101.86 106.26 101.86 106.26 100.36C106.26 98.8497 107.27 98.8497 107.27 97.3497C107.27 95.8397 106.26 95.8397 106.26 94.3397C106.26 92.8297 107.27 92.8297 107.27 91.3297C107.27 89.8297 106.26 89.8197 106.26 88.3097C106.26 86.7997 108.19 86.0097 107.12 84.9397C106.05 83.8697 105.25 85.7897 103.73 85.7897C102.22 85.7897 102.22 84.7897 100.7 84.7897C99.1801 84.7897 99.1801 85.7897 97.6701 85.7897C96.1601 85.7897 96.1601 84.7897 94.6401 84.7897C93.1201 84.7897 93.1201 85.7897 91.6101 85.7897C90.0901 85.7897 90.0901 84.7897 88.5801 84.7897C87.0601 84.7897 86.9701 84.5797 85.9001 85.6397C84.8301 86.6997 85.0401 86.7897 85.0401 88.2997C85.0401 89.8097 86.0501 89.8097 86.0501 91.3097C86.0501 92.8197 85.0401 92.8197 85.0401 94.3197C85.0401 95.8197 86.0501 95.8297 86.0501 97.3297C86.0501 98.8397 85.0401 98.8397 85.0401 100.34C85.0401 101.85 86.0501 101.85 86.0501 103.36C86.0501 104.87 84.1201 105.66 85.1901 106.73C86.2601 107.8 87.0601 105.88 88.5801 105.88C90.1001 105.88 90.0901 106.88 91.6101 106.88C93.1301 106.88 93.1301 105.88 94.6401 105.88C96.1501 105.88 96.1501 106.88 97.6701 106.88C99.1901 106.88 99.1901 105.88 100.7 105.88C102.21 105.88 102.16 106.64 103.66 106.87C105.08 107.09 105.34 107.09 106.41 106.02V106.03Z" fill="#73B6FF"/>
<path d="M43.4699 106.03C44.5399 107.1 44.6299 106.88 46.1399 106.88C47.6499 106.88 47.6499 105.88 49.1699 105.88C50.6899 105.88 50.6899 106.88 52.1999 106.88C53.7099 106.88 53.7099 105.88 55.2299 105.88C56.7499 105.88 56.7499 106.88 58.2599 106.88C59.7699 106.88 59.7799 105.88 61.2899 105.88C62.7999 105.88 63.6099 107.8 64.6799 106.73C65.7499 105.67 63.8199 104.87 63.8199 103.37C63.8199 101.86 64.8299 101.86 64.8299 100.36C64.8299 98.8597 63.8199 98.8497 63.8199 97.3497C63.8199 95.8397 64.8299 95.8397 64.8299 94.3397C64.8299 92.8397 63.8199 92.8297 63.8199 91.3297C63.8199 89.8297 64.8299 89.8197 64.8299 88.3097C64.8299 86.7997 65.0399 86.7097 63.9699 85.6497C62.8999 84.5797 62.8099 84.7997 61.2999 84.7997C59.7899 84.7997 59.7899 85.7997 58.2699 85.7997C56.7499 85.7997 56.7499 84.7997 55.2399 84.7997C53.7299 84.7997 53.7299 85.7997 52.2099 85.7997C50.6899 85.7997 50.6899 84.7997 49.1799 84.7997C47.6599 84.7997 47.6599 85.7997 46.1499 85.7997C44.6299 85.7997 43.8299 83.8797 42.7599 84.9497C41.6899 86.0197 43.6199 86.8097 43.6199 88.3097C43.6199 89.8097 42.6099 89.8197 42.6099 91.3197C42.6099 92.8297 43.6199 92.8297 43.6199 94.3297C43.6199 95.8397 42.6099 95.8397 42.6099 97.3397C42.6099 98.8497 43.6199 98.8497 43.6199 100.35C43.6199 101.85 42.8499 101.8 42.6199 103.29C42.3999 104.7 42.3999 104.96 43.4699 106.03Z" fill="#73B6FF"/>
</g>
<defs>
<clipPath id="clip0_1_57">
<rect width="107.45" height="106.79" fill="white" transform="translate(0 0.259766)"/>
</clipPath>
</defs>
</svg>
